<svg width="40" height="64" xmlns="http://www.w3.org/2000/svg"><path d="M29.744 0c3.567 0 4.86.371 6.163 1.069a7.27 7.27 0 0 1 3.024 3.024C39.63 5.396 40 6.689 40 10.256v43.488c0 3.567-.371 4.86-1.069 6.163a7.27 7.27 0 0 1-3.024 3.024C34.604 63.63 33.311 64 29.744 64H10.256c-3.567 0-4.86-.371-6.163-1.069a7.27 7.27 0 0 1-3.024-3.024C.37 58.604 0 57.311 0 53.744V10.256c0-3.567.371-4.86 1.069-6.163a7.27 7.27 0 0 1 3.024-3.024C5.396.37 6.689 0 10.256 0h19.488ZM23.32 42.28h-6.64V47h6.64v-4.72Zm-1-27.28h-4.64v13.28l.64 11.16h3.4l.6-11.16V15Z" fill="#F30C47" fill-rule="evenodd"/></svg>