<svg width="40" height="64" xmlns="http://www.w3.org/2000/svg"><path d="M29.744 0c3.567 0 4.86.371 6.163 1.069a7.27 7.27 0 0 1 3.024 3.024C39.63 5.396 40 6.689 40 10.256v43.488c0 3.567-.371 4.86-1.069 6.163a7.27 7.27 0 0 1-3.024 3.024C34.604 63.63 33.311 64 29.744 64H10.256c-3.567 0-4.86-.371-6.163-1.069a7.27 7.27 0 0 1-3.024-3.024C.37 58.604 0 57.311 0 53.744V10.256c0-3.567.371-4.86 1.069-6.163a7.27 7.27 0 0 1 3.024-3.024C5.396.37 6.689 0 10.256 0h19.488ZM20.16 15h-7.08v32h7.12c2.56 0 4.4-.507 5.52-1.52 1.12-1.013 1.72-2.693 1.8-5.04.027-.8.047-1.533.06-2.2a26.774 26.774 0 0 0-.06-2.24c-.053-1.307-.333-2.347-.84-3.12-.468-.714-1.197-1.235-2.187-1.562l-.253-.078v-.8c1.067-.32 1.847-.86 2.34-1.62.493-.76.78-1.78.86-3.06.018-.427.03-.856.036-1.289l.004-.651v-2.26c0-2.347-.587-4.027-1.76-5.04-1.115-.963-2.843-1.468-5.185-1.516L20.16 15Zm.12 17.84c.96 0 1.64.253 2.04.76.4.507.613 1.373.64 2.6.027 1.387.027 2.787 0 4.2-.027.853-.253 1.487-.68 1.9-.427.413-1.12.62-2.08.62h-2.56V32.84h2.64Zm-.12-13.76c1.813 0 2.72.747 2.72 2.24.027.773.04 1.493.04 2.16s-.013 1.387-.04 2.16c0 2.08-.853 3.12-2.56 3.12h-2.68v-9.68h2.52Z" fill="#006CEF" fill-rule="evenodd"/></svg>