<svg width="40" height="64" xmlns="http://www.w3.org/2000/svg"><path d="M29.744 0c3.567 0 4.86.371 6.163 1.069a7.27 7.27 0 0 1 3.024 3.024C39.63 5.396 40 6.689 40 10.256v43.488c0 3.567-.371 4.86-1.069 6.163a7.27 7.27 0 0 1-3.024 3.024C34.604 63.63 33.311 64 29.744 64H10.256c-3.567 0-4.86-.371-6.163-1.069a7.27 7.27 0 0 1-3.024-3.024C.37 58.604 0 57.311 0 53.744V10.256c0-3.567.371-4.86 1.069-6.163a7.27 7.27 0 0 1 3.024-3.024C5.396.37 6.689 0 10.256 0h19.488ZM19.92 15h-7.24v32h7.36c2.533 0 4.36-.527 5.48-1.58s1.693-2.793 1.72-5.22c.053-2.187.087-4.267.1-6.24a441.06 441.06 0 0 0 0-5.94 354.849 354.849 0 0 0-.1-6.26c-.027-2.4-.613-4.127-1.76-5.18-1.092-1.003-2.825-1.529-5.2-1.576L19.92 15Zm0 4.08c.96 0 1.653.18 2.08.54.427.36.653.913.68 1.66.053 2.32.093 4.52.12 6.6.027 2.08.027 4.16 0 6.24s-.067 4.28-.12 6.6c-.027.747-.247 1.3-.66 1.66-.413.36-1.073.54-1.98.54h-2.8V19.08h2.68Z" fill="#F30C47" fill-rule="evenodd"/></svg>