<svg width="40" height="64" xmlns="http://www.w3.org/2000/svg"><path d="M29.744 0c3.567 0 4.86.371 6.163 1.069a7.27 7.27 0 0 1 3.024 3.024C39.63 5.396 40 6.689 40 10.256v43.488c0 3.567-.371 4.86-1.069 6.163a7.27 7.27 0 0 1-3.024 3.024C34.604 63.63 33.311 64 29.744 64H10.256c-3.567 0-4.86-.371-6.163-1.069a7.27 7.27 0 0 1-3.024-3.024C.37 58.604 0 57.311 0 53.744V10.256c0-3.567.371-4.86 1.069-6.163a7.27 7.27 0 0 1 3.024-3.024C5.396.37 6.689 0 10.256 0h19.488ZM20.12 15h-7.04v32h4.56V35.48H20L23 47h4.84l-3.48-12.28c.987-.453 1.713-1.147 2.18-2.08.467-.933.727-2.147.78-3.64.053-1.333.08-2.54.08-3.62s-.027-2.38-.08-3.9c-.08-2.293-.673-3.947-1.78-4.96-1.051-.963-2.734-1.468-5.05-1.516L20.12 15Zm0 4.08c.907 0 1.56.173 1.96.52.4.347.627.907.68 1.68.053 1.387.08 2.707.08 3.96 0 1.253-.027 2.587-.08 4-.053.747-.28 1.293-.68 1.64s-1.053.52-1.96.52h-2.48V19.08h2.48Z" fill="#F30C47" fill-rule="evenodd"/></svg>