<svg width="22" height="18" xmlns="http://www.w3.org/2000/svg">
  <path d="M11.005 0c4.8 0 8.807 3.646 9.208 8.215h1.105c.625 0 .89.618.498 1.094l-1.77 2.209c-.459.561-1.016.561-1.475 0L16.8 9.309c-.39-.476-.127-1.094.5-1.094h1.221c-.391-3.703-3.587-6.578-7.517-6.578-2.102 0-4.018.81-5.347 2.17-.381.353-.88.381-1.222.077-.332-.314-.352-.828.049-1.21A9.316 9.316 0 0111.005 0zM.682 9.785c-.625 0-.89-.618-.498-1.094l1.77-2.209c.459-.561 1.016-.561 1.475 0L5.2 8.691c.39.476.127 1.094-.5 1.094H3.479c.391 3.703 3.587 6.578 7.527 6.578 2.092 0 3.998-.819 5.347-2.17.371-.353.87-.381 1.212-.077.342.314.352.819-.049 1.21A9.252 9.252 0 0111.005 18c-4.81 0-8.817-3.646-9.218-8.215H.682z" fill="#FFF" fill-rule="nonzero"/>
</svg>
