<svg width="35" height="23" xmlns="http://www.w3.org/2000/svg"><path fill-rule="evenodd" d="M31.194 2.514c1.396.975 2.758 2.552 3.238 5.082 1.112 5.879-3.304 10.296-9.564 9.948.033 1.613-.29 4.506-3.403 5.285-.25.062-.506.09-.762.092-5.47.034-16.875.067-16.875.067s-3.494.001-3.73-3.485C.021 13.597.062 2.539.062 2.539L.06 2.262C.064 1.837.397.988 1.266.988h24.993c1.761 0 3.49.518 4.935 1.526ZM24.98 13.377s1.085.125 2.42-.042c1.543-.5 2.962-1.585 2.962-4.337 0-1.127-.4-1.942-.898-2.521-.708-.823-1.756-1.275-2.841-1.275H24.98v8.175Zm-12.232 4.992s-.173.17-.445.034c-.11-.081-.156-.13-.156-.13-.158-.157-.533-.503-1.023-.956-1.495-1.381-4.06-3.75-4.78-4.732-1.02-1.389-1.498-3.884-.13-5.338 1.367-1.453 4.322-1.562 6.275.586 0 0 2.252-2.564 4.99-1.386 2.737 1.178 2.633 4.33 1.04 6.2-1.793 2.092-5.77 5.722-5.77 5.722Z" /></svg>