<svg xmlns="http://www.w3.org/2000/svg" width="22" height="22"><path fill="#FFF" fill-opacity=".32" fill-rule="evenodd" d="M11 1.98c2.94 0 3.28.01 4.44.07 1.08.04 1.66.22 2.05.37.51.2.88.44 1.26.83.39.38.63.75.82 1.26.16.39.33.97.38 2.04.06 1.16.07 1.51.07 4.45 0 2.94-.01 3.28-.07 4.44a6.09 6.09 0 01-.38 2.05c-.2.51-.43.88-.82 1.26a3.4 3.4 0 01-1.26.83c-.39.15-.97.32-2.05.37-1.16.06-1.5.07-4.44.07-2.94 0-3.29-.01-4.45-.07a6.09 6.09 0 01-2.04-.37 3.4 3.4 0 01-1.26-.83 3.4 3.4 0 01-.83-1.26 6.09 6.09 0 01-.37-2.05c-.06-1.16-.07-1.5-.07-4.44 0-2.94.01-3.29.07-4.45.04-1.07.22-1.65.37-2.04.2-.51.44-.88.83-1.26a3.4 3.4 0 011.26-.83c.39-.15.97-.33 2.04-.37 1.16-.06 1.51-.07 4.45-.07M12.33 0c1.81 0 2.23.02 3.2.07 1.18.05 1.98.23 2.68.5a5.4 5.4 0 011.94 1.28 5.4 5.4 0 011.27 1.94c.27.7.46 1.5.51 2.67C22 7.64 22 8.01 22 11s-.01 3.36-.07 4.54a8.07 8.07 0 01-.5 2.67 5.4 5.4 0 01-1.28 1.94 5.4 5.4 0 01-1.94 1.27c-.7.27-1.5.46-2.68.51C14.36 22 14 22 11 22s-3.36-.01-4.54-.07a8.07 8.07 0 01-2.67-.5 5.4 5.4 0 01-1.94-1.28 5.4 5.4 0 01-1.27-1.94c-.28-.7-.46-1.5-.51-2.67-.05-.98-.07-1.4-.07-3.21V9.67c0-1.81.02-2.23.07-3.2.05-1.18.23-1.98.5-2.68a5.4 5.4 0 011.28-1.94A5.4 5.4 0 013.79.58C4.5.3 5.3.12 6.46.07 7.44.02 7.86 0 9.67 0zm-1.3 5.37a5.65 5.65 0 100 11.3 5.65 5.65 0 000-11.3zm0 1.98a3.67 3.67 0 110 7.34 3.67 3.67 0 010-7.34zm5.82-3.55a1.31 1.31 0 100 2.62 1.31 1.31 0 000-2.62z"/></svg>