<svg xmlns="http://www.w3.org/2000/svg" width="21" height="18"><path fill="#FFF" fill-opacity=".32" fill-rule="evenodd" d="M18.53 2.85A4.51 4.51 0 0020.42.33c-.83.52-1.75.9-2.74 1.1A4.2 4.2 0 0014.54 0a4.43 4.43 0 00-4.3 4.54c0 .36.03.7.1 1.04-3.58-.2-6.75-2-8.88-4.75A4.72 4.72 0 002.8 6.9a4.15 4.15 0 01-1.96-.57v.06c0 2.2 1.49 4.04 3.46 4.45a4.01 4.01 0 01-1.95.08 4.35 4.35 0 004.03 3.16A8.36 8.36 0 010 15.96 11.75 11.75 0 006.6 18c7.93 0 12.26-6.92 12.26-12.93l-.01-.59A9 9 0 0021 2.13c-.77.36-1.6.6-2.47.72z"/></svg>