<?xml version="1.0" encoding="UTF-8"?>
<svg width="121px" height="16px" viewBox="0 0 121 16" version="1.1" xmlns="http://www.w3.org/2000/svg" xmlns:xlink="http://www.w3.org/1999/xlink">
    <!-- Generator: sketchtool 63.1 (101010) - https://sketch.com -->
    <title>8A2CA550-1636-427A-9B89-5F0CD8229FF7</title>
    <desc>Created with sketchtool.</desc>
    <g id="Mobile" stroke="none" stroke-width="1" fill="none" fill-rule="evenodd">
        <g id="05-About-Us---Mobile---Light" transform="translate(-127.000000, -1223.000000)" fill="#FFFFFF" fill-rule="nonzero">
            <g id="Buttons-/-Text-Copy-3" transform="translate(24.000000, 1199.000000)">
                <path d="M220.317597,24.4044944 L224,24.4044944 L224,39.6404494 L220.128755,39.6404494 L214.369099,29.8426966 L214.369099,39.6404494 L210.66309,39.6404494 L210.66309,24.4044944 L214.534335,24.4044944 L220.317597,34.3146067 L220.317597,24.4044944 Z M196.075107,24 C201.386266,24 204.525751,27.8202247 204.525751,32 C204.525751,36.1797753 201.362661,40 196.075107,40 C190.740343,40 187.600858,36.1797753 187.600858,32 C187.600858,27.8426966 190.763948,24 196.075107,24 Z M200.772532,32.0224719 C200.772532,29.5280899 198.978541,27.1910112 196.098712,27.1910112 C193.171674,27.1910112 191.424893,29.5280899 191.424893,32.0224719 C191.424893,34.5168539 193.195279,36.8539326 196.098712,36.8539326 C198.978541,36.8314607 200.772532,34.5168539 200.772532,32.0224719 Z M136.306867,27.4382022 L136.306867,24.4044944 L147.259657,24.4044944 L147.259657,27.4382022 L143.624464,27.4382022 L143.624464,39.6179775 L139.918455,39.6179775 L139.918455,27.4382022 L136.306867,27.4382022 Z M175.538627,30.6966292 L181.60515,30.6966292 L181.60515,33.4606742 L175.562232,33.4606742 L175.562232,36.8089888 L181.60515,36.8089888 L181.60515,39.6404494 L171.856223,39.6404494 L171.856223,24.4044944 L181.60515,24.4044944 L181.60515,27.2359551 L175.562232,27.2359551 L175.562232,30.6966292 L175.538627,30.6966292 Z M159.723176,24.4044944 C163.263948,24.4044944 165.553648,26.9438202 165.553648,29.9101124 C165.553648,32.0449438 164.373391,33.9325843 162.366953,34.8314607 L165.577253,39.6404494 L161.281116,39.6404494 L158.448498,35.4157303 L156.701717,35.4157303 L156.701717,39.6404494 L152.995708,39.6404494 L152.995708,24.4044944 L159.723176,24.4044944 L159.723176,24.4044944 Z M161.800429,29.9101124 C161.800429,28.494382 160.785408,27.2808989 159.251073,27.2808989 L156.725322,27.2808989 L156.725322,32.5393258 L159.251073,32.5393258 C160.809013,32.5393258 161.800429,31.3258427 161.800429,29.9101124 Z M129.060086,37.7752809 L123.371245,37.7752809 L122.757511,39.6179775 L118.815451,39.6179775 L124.527897,24.3820225 L127.927039,24.3820225 L133.7103,39.6179775 L129.697425,39.6179775 L129.060086,37.7752809 Z M126.227468,28.741573 L124.26824,35.011236 L128.16309,35.011236 L126.227468,28.741573 Z M109.703863,24.4044944 C113.244635,24.4044944 115.534335,26.9438202 115.534335,29.9101124 C115.534335,32.8764045 113.244635,35.4157303 109.703863,35.4157303 L106.706009,35.4157303 L106.706009,39.6404494 L103,39.6404494 L103,24.4044944 L109.703863,24.4044944 Z M111.804721,29.9101124 C111.804721,28.494382 110.7897,27.2808989 109.255365,27.2808989 L106.706009,27.2808989 L106.706009,32.5393258 L109.23176,32.5393258 C110.7897,32.5393258 111.804721,31.3258427 111.804721,29.9101124 Z" id="patreon-vector-logo"></path>
            </g>
        </g>
    </g>
</svg>