<svg width="16" height="20" xmlns="http://www.w3.org/2000/svg">
  <path d="M8.01 13.047c-.408 0-.758-.327-.758-.718V3.332l.066-1.316-.596.634-1.316 1.391a.728.728 0 01-.52.215c-.389 0-.673-.27-.673-.644 0-.196.076-.346.218-.486L7.45.252C7.64.065 7.81 0 8.009 0c.2 0 .37.065.559.252l3.02 2.874c.142.14.218.29.218.486 0 .373-.303.644-.682.644a.707.707 0 01-.511-.215l-1.325-1.39-.587-.635.066 1.316v8.997c0 .391-.35.718-.758.718zM2.86 20C.974 20 0 19.057 0 17.21V8.549C0 6.7.975 5.768 2.86 5.768h2.48v1.53H2.916c-.871 0-1.354.457-1.354 1.353v8.456c0 .896.483 1.353 1.354 1.353h10.177c.862 0 1.354-.457 1.354-1.353V8.65c0-.896-.492-1.353-1.354-1.353H10.68v-1.53h2.471c1.894 0 2.85.942 2.85 2.78v8.662c0 1.847-.956 2.79-2.85 2.79H2.86z" fill="#FFF" fill-rule="nonzero"/>
</svg>
